{"title":"Krishna Aur Kans [2012].480p.BRRip.[Dual Audio].6Ch.[Hindi+Engli","uid":7601029,"size":751717460,"categoryP":"video","categoryS":"movies","magnet":"?xt=urn:btih:e908833425b29da24cd61d66b0d23f5ae9f66222&amp;dn=Krishna+Aur+Kans+%5B2012%5D.480p.BRRip.%5BDual+Audio%5D.6Ch.%5BHindi%2BEngli&amp;tr=udp%3A%2F%2Ftracker.openbittorrent.com%3A80&amp;tr=udp%3A%2F%2Fopen.demonii.com%3A1337&amp;tr=udp%3A%2F%2Ftracker.coppersurfer.tk%3A6969&amp;tr=udp%3A%2F%2Fexodus.desync.com%3A6969","seeders":0,"leechers":0,"uploader":"TeamExD","files":4,"time":1346821059,"description":"Format                                   : Matroska\nFormat version                           : Version 2\nFile size                                : 705 MiB\nDuration                                 : 1h 58mn\nOverall bit rate                         : 835 Kbps\nMovie name                               : Krishna Aur Kans [2012].480p.BRRip.x264.[Dual Audio].6Ch.[Hindi+English].by K@rtik [ExD Exclusive]\nFormat                                   : AVC\nFormat/Info                              : Advanced Video Codec\nFormat profile                           : &lt;a class=&quot;__cf_email__&quot; href=&quot;/cdn-cgi/l/email-protection&quot; data-cfemail=&quot;89c1e0eee1c9c5baa7b9&quot;&gt;[email&amp;#160;protected]&lt;/a&gt;&lt;script data-cfhash='f9e31' type=&quot;text/javascript&quot;&gt;\n/* &lt;![CDATA[ */!function(){try{var t=&quot;currentScript&quot;in document?document.currentScript:function(){for(var t=document.getElementsByTagName(&quot;script&quot;),e=t.length;e--;)if(t[e].getAttribute(&quot;data-cfhash&quot;))return t[e]}();if(t&amp;&amp;t.previousSibling){var e,r,n,i,c=t.previousSibling,a=c.getAttribute(&quot;data-cfemail&quot;);if(a){for(e=&quot;&quot;,r=parseInt(a.substr(0,2),16),n=2;a.length-n;n+=2)i=parseInt(a.substr(n,2),16)^r,e+=String.fromCharCode(i);e=document.createTextNode(e),c.parentNode.replaceChild(e,c)}t.parentNode.removeChild(t);}}catch(u){}}()/* ]]&gt; */&lt;/script&gt;\nFormat settings, CABAC                   : Yes\nFormat settings, ReFrames                : 4 frames\nDuration                                 : 1h 58mn\nBit rate                                 : 578 Kbps\nWidth                                    : 720 pixels\nHeight                                   : 308 pixels\nDisplay aspect ratio                     : 2.35:1\nBits/(Pixel*Frame)                       : 0.109\nStream size                              : 475 MiB (67%)\nTitle                                    : K@rtik\nCodec ID                                 : A_AC3\nDuration                                 : 1h 58mn\nBit rate                                 : 128 Kbps\nChannel(s)                               : 6 channels\nChannel positions                        : Front: L C R, Side: L R, LFE\nSampling rate                            : 48.0 KHz\nStream size                              : 108 MiB (15%)\nTitle                                    : K@rtik\nLanguage                                 : Hindi\nCodec ID                                 : A_AC3\nDuration                                 : 1h 58mn\nBit rate mode                            : Constant\nBit rate                                 : 128 Kbps\nChannel(s)                               : 6 channels\nChannel positions                        : Front: L C R, Side: L R, LFE\nSampling rate                            : 48.0 KHz\nBit depth                                : 16 bits\nStream size                              : 108 MiB (15%)\nTitle                                    : K@rtik\nLanguage                                 : English &lt;a href=&quot;\nhttp://img210.imageshack.us/img210/5512/exdp.jpg&quot; rel=&quot;nofollow&quot; target=&quot;_NEW&quot;&gt;\nhttp://img210.imageshack.us/img210/5512/exdp.jpg&lt;/a&gt; &lt;a href=&quot;\nhttp://img825.imageshack.us/img825/64/66767997.png&quot; rel=&quot;nofollow&quot; target=&quot;_NEW&quot;&gt;\nhttp://img825.imageshack.us/img825/64/66767997.png&lt;/a&gt; &lt;a href=&quot;\nhttp://img193.imageshack.us/img193/1436/34376372.png&quot; rel=&quot;nofollow&quot; target=&quot;_NEW&quot;&gt;\nhttp://img193.imageshack.us/img193/1436/34376372.png&lt;/a&gt; &lt;a href=&quot;\nhttp://img405.imageshack.us/img405/2792/94541173.png&quot; rel=&quot;nofollow&quot; target=&quot;_NEW&quot;&gt;\nhttp://img405.imageshack.us/img405/2792/94541173.png&lt;/a&gt; &lt;a href=&quot;\nhttp://img198.imageshack.us/img198/211/41774012.png&quot; rel=&quot;nofollow&quot; target=&quot;_NEW&quot;&gt;\nhttp://img198.imageshack.us/img198/211/41774012.png&lt;/a&gt; &lt;a href=&quot;\nhttp://img404.imageshack.us/img404/9585/13323762.png&quot; rel=&quot;nofollow&quot; target=&quot;_NEW&quot;&gt;\nhttp://img404.imageshack.us/img404/9585/13323762.png&lt;/a&gt; &lt;a href=&quot;\nhttp://img28.imageshack.us/img28/5910/73419007.png&quot; rel=&quot;nofollow&quot; target=&quot;_NEW&quot;&gt;\nhttp://img28.imageshack.us/img28/5910/73419007.png&lt;/a&gt; &lt;a href=&quot;\nhttp://img269.imageshack.us/img269/9066/17665546.png&quot; rel=&quot;nofollow&quot; target=&quot;_NEW&quot;&gt;\nhttp://img269.imageshack.us/img269/9066/17665546.png&lt;/a&gt; &lt;a href=&quot;\nhttp://img820.imageshack.us/img820/3804/46956088.png&quot; rel=&quot;nofollow&quot; target=&quot;_NEW&quot;&gt;\nhttp://img820.imageshack.us/img820/3804/46956088.png&lt;/a&gt; &lt;a href=&quot;\nhttp://img145.imageshack.us/img145/7700/25573405.png&quot; rel=&quot;nofollow&quot; target=&quot;_NEW&quot;&gt;\nhttp://img145.imageshack.us/img145/7700/25573405.png&lt;/a&gt; &lt;a href=&quot;\nhttp://img18.imageshack.us/img18/9716/56039485.png&quot; rel=&quot;nofollow&quot; target=&quot;_NEW&quot;&gt;\nhttp://img18.imageshack.us/img18/9716/56039485.png&lt;/a&gt; &lt;a href=&quot;\nhttp://img28.imageshack.us/img28/8752/36506835.png&quot; rel=&quot;nofollow&quot; target=&quot;_NEW&quot;&gt;\nhttp://img28.imageshack.us/img28/8752/36506835.png&lt;/a&gt;\n\n\n","torrent":{"xt":"urn:btih:e908833425b29da24cd61d66b0d23f5ae9f66222","amp;dn":"Krishna+Aur+Kans+%5B2012%5D.480p.BRRip.%5BDual+Audio%5D.6Ch.%5BHindi%2BEngli","amp;tr":["udp%3A%2F%2Ftracker.openbittorrent.com%3A80","udp%3A%2F%2Fopen.demonii.com%3A1337","udp%3A%2F%2Ftracker.coppersurfer.tk%3A6969","udp%3A%2F%2Fexodus.desync.com%3A6969"],"infoHash":"e908833425b29da24cd61d66b0d23f5ae9f66222","infoHashBuffer":{"type":"Buffer","data":[233,8,131,52,37,178,157,162,76,214,29,102,176,210,63,90,233,246,98,34]},"announce":[],"urlList":[]}}